<svg width="20" height="18" viewBox="0 0 20 18" fill="none" xmlns="http://www.w3.org/2000/svg">
<path d="M18.772 6.155L17.404 2.051C17.2056 1.45348 16.8238 0.9337 16.3131 0.565508C15.8024 0.197316 15.1886 -0.000558206 14.559 1.18278e-06H5.441C4.81139 -0.000558206 4.19761 0.197316 3.68688 0.565508C3.17615 0.9337 2.79445 1.45348 2.596 2.051L1.228 6.155C0.864222 6.30722 0.55356 6.56357 0.335067 6.89185C0.116573 7.22012 -4.809e-07 7.60566 0 8V13C0 13.738 0.404 14.376 1 14.723V17C1 17.2652 1.10536 17.5196 1.29289 17.7071C1.48043 17.8946 1.73478 18 2 18H3C3.26522 18 3.51957 17.8946 3.70711 17.7071C3.89464 17.5196 4 17.2652 4 17V15H16V17C16 17.2652 16.1054 17.5196 16.2929 17.7071C16.4804 17.8946 16.7348 18 17 18H18C18.2652 18 18.5196 17.8946 18.7071 17.7071C18.8946 17.5196 19 17.2652 19 17V14.723C19.3034 14.549 19.5556 14.2981 19.7311 13.9956C19.9067 13.6932 19.9994 13.3497 20 13V8C20 7.60566 19.8834 7.22012 19.6649 6.89185C19.4464 6.56357 19.1358 6.30722 18.772 6.155ZM5.441 2H14.558C14.989 2 15.371 2.274 15.507 2.684L16.613 6H3.387L4.492 2.684C4.55835 2.4848 4.68572 2.31153 4.85605 2.18876C5.02638 2.06599 5.23104 1.99995 5.441 2ZM3.5 12C3.30295 11.9999 3.10785 11.9611 2.92582 11.8856C2.7438 11.8101 2.57842 11.6995 2.43913 11.5602C2.29984 11.4208 2.18937 11.2553 2.11403 11.0733C2.03868 10.8912 1.99993 10.696 2 10.499C2.00007 10.302 2.03894 10.1068 2.11441 9.92482C2.18988 9.7428 2.30046 9.57742 2.43984 9.43813C2.57922 9.29885 2.74467 9.18838 2.92675 9.11303C3.10882 9.03768 3.30395 8.99893 3.501 8.999C3.89896 8.99913 4.28056 9.15735 4.56187 9.43884C4.84317 9.72033 5.00113 10.102 5.001 10.5C5.00087 10.898 4.84265 11.2796 4.56116 11.5609C4.27967 11.8422 3.89796 12.0001 3.5 12ZM16.5 12C16.303 11.9999 16.1078 11.9611 15.9258 11.8856C15.7438 11.8101 15.5784 11.6995 15.4391 11.5602C15.2998 11.4208 15.1894 11.2553 15.114 11.0733C15.0387 10.8912 14.9999 10.696 15 10.499C15.0001 10.302 15.0389 10.1068 15.1144 9.92482C15.1899 9.7428 15.3005 9.57742 15.4398 9.43813C15.5792 9.29885 15.7447 9.18838 15.9267 9.11303C16.1088 9.03768 16.304 8.99893 16.501 8.999C16.899 8.99913 17.2806 9.15735 17.5619 9.43884C17.8432 9.72033 18.0011 10.102 18.001 10.5C18.0009 10.898 17.8427 11.2796 17.5612 11.5609C17.2797 11.8422 16.898 12.0001 16.5 12Z" fill="black"/>
</svg>
