<svg width="40" height="40" viewBox="0 0 40 40" fill="none" xmlns="http://www.w3.org/2000/svg">
<rect width="40" height="40" rx="20" transform="matrix(1 0 0 -1 0 40)" fill="#1A212A"/>
<path d="M28.772 18.156L27.404 14.051C27.2056 13.4535 26.8238 12.9337 26.3131 12.5655C25.8024 12.1973 25.1886 11.9994 24.559 12H22V10H18V12H15.441C14.8114 11.9994 14.1976 12.1973 13.6869 12.5655C13.1762 12.9337 12.7944 13.4535 12.596 14.051L11.228 18.156C10.8646 18.3085 10.5543 18.5648 10.3358 18.8928C10.1174 19.2208 10.0006 19.6059 10 20V25C10 25.753 10.423 26.402 11.039 26.743C11.026 26.809 11 26.869 11 26.938V29C11 29.2652 11.1054 29.5196 11.2929 29.7071C11.4804 29.8946 11.7348 30 12 30H13C13.2652 30 13.5196 29.8946 13.7071 29.7071C13.8946 29.5196 14 29.2652 14 29V27H26V29C26 29.2652 26.1054 29.5196 26.2929 29.7071C26.4804 29.8946 26.7348 30 27 30H28C28.2652 30 28.5196 29.8946 28.7071 29.7071C28.8946 29.5196 29 29.2652 29 29V26.938C29 26.869 28.974 26.808 28.961 26.743C29.2744 26.5721 29.5362 26.3202 29.7189 26.0136C29.9017 25.707 29.9988 25.3569 30 25V20C30 19.171 29.492 18.459 28.772 18.156ZM12 25V20H28L28.002 25H12ZM15.441 14H24.558C24.989 14 25.371 14.274 25.507 14.684L26.613 18H13.387L14.492 14.684C14.5583 14.4848 14.6857 14.3115 14.856 14.1888C15.0264 14.066 15.231 13.9999 15.441 14Z" fill="white"/>
<path d="M14.5 24C15.3284 24 16 23.3284 16 22.5C16 21.6716 15.3284 21 14.5 21C13.6716 21 13 21.6716 13 22.5C13 23.3284 13.6716 24 14.5 24Z" fill="white"/>
<path d="M25.5 24C26.3284 24 27 23.3284 27 22.5C27 21.6716 26.3284 21 25.5 21C24.6716 21 24 21.6716 24 22.5C24 23.3284 24.6716 24 25.5 24Z" fill="white"/>
</svg>
