<svg width="24" height="25" viewBox="0 0 24 25" fill="none" xmlns="http://www.w3.org/2000/svg">
<path d="M1.00002 20.0005C0.992689 20.3965 1.06528 20.7899 1.21345 21.1572C1.36162 21.5245 1.58233 21.8581 1.86238 22.1381C2.14242 22.4182 2.47607 22.6389 2.84335 22.7871C3.21064 22.9352 3.60403 23.0078 4.00002 23.0005H20C20.396 23.0078 20.7894 22.9352 21.1567 22.7871C21.524 22.6389 21.8576 22.4182 22.1377 22.1381C22.4177 21.8581 22.6384 21.5245 22.7866 21.1572C22.9348 20.7899 23.0073 20.3965 23 20.0005V4.0005C23.0073 3.60452 22.9348 3.21113 22.7866 2.84384C22.6384 2.47655 22.4177 2.14291 22.1377 1.86286C21.8576 1.58281 21.524 1.36211 21.1567 1.21394C20.7894 1.06577 20.396 0.993177 20 1.0005H4.00002C3.60403 0.993177 3.21064 1.06577 2.84335 1.21394C2.47607 1.36211 2.14242 1.58281 1.86238 1.86286C1.58233 2.14291 1.36162 2.47655 1.21345 2.84384C1.06528 3.21113 0.992689 3.60452 1.00002 4.0005V20.0005Z" stroke="#152D4A" stroke-width="2" stroke-miterlimit="10" stroke-linecap="round" stroke-linejoin="round"/>
<path d="M6 7H7" stroke="#152D4A" stroke-width="2" stroke-miterlimit="10" stroke-linecap="round" stroke-linejoin="round"/>
<path d="M11 7H18" stroke="#152D4A" stroke-width="2" stroke-miterlimit="10" stroke-linecap="round" stroke-linejoin="round"/>
<path d="M6 12H7" stroke="#152D4A" stroke-width="2" stroke-miterlimit="10" stroke-linecap="round" stroke-linejoin="round"/>
<path d="M11 12H18" stroke="#152D4A" stroke-width="2" stroke-miterlimit="10" stroke-linecap="round" stroke-linejoin="round"/>
<path d="M6 17H7" stroke="#152D4A" stroke-width="2" stroke-miterlimit="10" stroke-linecap="round" stroke-linejoin="round"/>
<path d="M11 17H18" stroke="#152D4A" stroke-width="2" stroke-miterlimit="10" stroke-linecap="round" stroke-linejoin="round"/>
</svg>
