<svg width="66" height="52" viewBox="0 0 66 52" fill="none" xmlns="http://www.w3.org/2000/svg">
<path d="M28.2145 0L32.8724 3.61676L29.2069 7.92435C31.7586 10.9173 32.9372 13.6583 32.9372 17.4742C32.9372 22.8993 30.264 27.3248 24.794 29.4461C31.072 31.5653 32.8765 35.8038 32.8765 39.4836C32.8765 47.8387 24.6725 52.0142 16.4727 52.0142C6.46836 52.0142 0.0688555 46.902 0.315925 38.36H6.71543C6.52709 43.1633 11.3733 45.7194 16.4706 45.7804C21.1913 45.7804 26.2279 43.8481 26.2279 39.4816C26.2279 35.1801 22.3112 32.8088 16.5921 32.8088C6.6486 32.7967 0 27.0606 0 17.46C0 7.17052 8.26873 1.99531 16.5921 1.99531C19.1418 1.99531 22.6838 2.6191 24.8609 4.11457L28.2145 0ZM6.46634 17.46C6.46634 23.5699 11.0614 26.8757 16.5921 26.8757C22.2504 26.8757 26.5357 23.0152 26.5357 17.46C26.5357 11.4111 21.8778 7.98124 16.5921 7.98124C11.3753 7.98124 6.46634 11.0372 6.46634 17.46Z" fill="white"/>
<path d="M66 19.8901C66 28.9929 59.722 35.8526 50.0903 35.8526C40.5214 35.8526 34.3082 28.9929 34.3082 19.8901C34.3082 10.8482 40.5862 3.86463 50.0903 3.86463C59.5397 3.86056 66 10.8482 66 19.8901ZM40.7057 19.8901C40.7057 25.3762 44.2477 29.8667 50.0863 29.8667C55.9916 29.8667 59.5336 25.3762 59.5336 19.8901C59.5336 14.465 55.6858 9.78757 50.0863 9.78757C44.2518 9.78757 40.7057 14.465 40.7057 19.8901Z" fill="white"/>
<path d="M54.1245 42.1961C54.1245 39.9966 52.3474 38.2136 50.1552 38.2136C47.963 38.2136 46.1859 39.9966 46.1859 42.1961C46.1859 44.3956 47.963 46.1786 50.1552 46.1786C52.3474 46.1786 54.1245 44.3956 54.1245 42.1961Z" fill="white"/>
<path d="M50.224 8.90784C52.383 8.90744 54.4936 9.54941 56.289 10.7526C58.0843 11.9557 59.4837 13.666 60.3102 15.6672C61.1367 17.6683 61.3531 19.8705 60.9322 21.9951C60.5112 24.1196 59.4718 26.0713 57.9453 27.6031C56.4188 29.135 54.4738 30.1782 52.3563 30.601C50.2388 31.0237 48.044 30.8069 46.0493 29.9781C44.0546 29.1492 42.3497 27.7455 41.1502 25.9444C39.9507 24.1434 39.3104 22.0259 39.3104 19.8597C39.3104 16.9554 40.4602 14.1701 42.5068 12.1163C44.5535 10.0625 47.3294 8.90838 50.224 8.90784ZM58.592 18.7422C58.2133 15.0584 54.8961 11.3481 50.1957 11.3664C45.4649 11.3847 42.2165 15.1417 41.8621 18.7259C41.9188 18.7259 41.9735 18.7259 42.0282 18.7259C43.6584 18.5674 45.2887 18.411 46.919 18.2423C47.0324 18.2129 47.1299 18.1399 47.1903 18.0391C48.6383 15.7289 51.8097 15.7309 53.2658 18.0391C53.3442 18.1476 53.4621 18.2206 53.5939 18.2423C54.7057 18.3642 55.8216 18.4679 56.9293 18.5776L58.592 18.7422ZM48.9158 28.2433C48.9158 28.1579 48.9158 28.0746 48.9158 27.9913C48.8105 26.4003 48.7132 24.8073 48.5897 23.2164C48.5804 23.1557 48.5589 23.0976 48.5265 23.0456C48.4941 22.9936 48.4516 22.9487 48.4014 22.9136C47.863 22.5705 47.4166 22.1003 47.1012 21.5441C47.0696 21.492 47.0275 21.447 46.9777 21.412C46.9278 21.3771 46.8713 21.3529 46.8116 21.3409C45.2381 21.2068 43.6605 21.087 42.0849 20.965C42.0079 20.965 41.9269 20.965 41.8439 20.965C42.3522 24.9353 45.5661 27.78 48.9158 28.2433ZM58.6143 20.9874C58.5899 20.9765 58.5639 20.9697 58.5373 20.9671C56.8868 21.0931 55.2343 21.219 53.5838 21.3552C53.5379 21.3679 53.4952 21.39 53.4583 21.4201C53.4214 21.4502 53.391 21.4876 53.3691 21.5299C53.073 22.0856 52.6338 22.5515 52.0973 22.8791C52.0237 22.9176 51.9625 22.9762 51.9206 23.0481C51.8786 23.1199 51.8578 23.2022 51.8603 23.2855C51.7814 24.6041 51.6902 25.9269 51.6052 27.2375C51.5829 27.5707 51.5647 27.906 51.5444 28.2534C55.1026 27.8003 58.2781 24.5249 58.6143 20.9772V20.9874ZM51.3237 19.8719C51.3241 19.6552 51.2605 19.4433 51.141 19.2628C51.0216 19.0823 50.8515 18.9414 50.6523 18.8578C50.4531 18.7741 50.2337 18.7515 50.0217 18.7928C49.8097 18.8341 49.6146 18.9374 49.4611 19.0898C49.3076 19.2421 49.2024 19.4367 49.1589 19.6489C49.1154 19.8611 49.1355 20.0815 49.2167 20.2823C49.2978 20.4831 49.4364 20.6552 49.615 20.7771C49.7935 20.899 50.004 20.9651 50.22 20.9671C50.3655 20.9695 50.5101 20.9427 50.6451 20.888C50.7801 20.8334 50.9027 20.7521 51.0059 20.6491C51.109 20.546 51.1904 20.4232 51.2454 20.2879C51.3003 20.1527 51.3276 20.0078 51.3257 19.8617L51.3237 19.8719Z" fill="white"/>
</svg>
